# xmcd CD database file
#
# Track frame offsets:
#	150
#	10400
#	20582
#	30167
#	39709
#	49807
#	59876
#	69531
#	79093
#	88824
#	98492
#	107298
#	116079
#	126389
#	136612
#	147453
#	158297
#	168152
#	177940
#	186364
#	194736
#	199067
#	203402
#	207742
#	212047
#	216380
#	220710
#	225051
#	229397
#	233719
#	238057
#	240342
#	242627
#	244910
#	247179
#	249447
#	251703
#	253932
#	256195
#	258420
#	260632
#	262205
#	263775
#	265364
#	266916
#	268496
#	270063
#	271654
#	273222
#	274811
#	276389
#	277569
#	278814
#	280049
#	281244
#	282483
#	283713
#	284947
#	286173
#	287421
#	288656
#	289524
#	290430
#	291316
#	292165
#	293043
#	293944
#	294847
#	295730
#	296594
#
# Disc length: 3966 seconds
#
# Revision: 0
# Processed by: cddbd v1.4PL0 Copyright (c) Steve Scherf et al.
# Submitted via: CDex 1.50
#
DISCID=840f7c46
DTITLE=Country Pop Promos (Country 4) (OM-COU4) - First Call
DYEAR=2000
DGENRE=Country
TTITLE0=First Call
TTITLE1=First Call
TTITLE2=First Call
TTITLE3=First Call
TTITLE4=First Call
TTITLE5=First Call
TTITLE6=First Call
TTITLE7=First Call
TTITLE8=First Call
TTITLE9=First Call
TTITLE10=First Call
TTITLE11=First Call
TTITLE12=First Call
TTITLE13=First Call
TTITLE14=First Call
TTITLE15=First Call
TTITLE16=First Call
TTITLE17=First Call
TTITLE18=First Call
TTITLE19=First Call
TTITLE20=First Call
TTITLE21=First Call
TTITLE22=First Call
TTITLE23=First Call
TTITLE24=First Call
TTITLE25=First Call
TTITLE26=First Call
TTITLE27=First Call
TTITLE28=First Call
TTITLE29=First Call
TTITLE30=First Call
TTITLE31=First Call
TTITLE32=First Call
TTITLE33=First Call
TTITLE34=First Call
TTITLE35=First Call
TTITLE36=First Call
TTITLE37=First Call
TTITLE38=First Call
TTITLE39=First Call
TTITLE40=First Call
TTITLE41=First Call
TTITLE42=First Call
TTITLE43=First Call
TTITLE44=First Call
TTITLE45=First Call
TTITLE46=First Call
TTITLE47=First Call
TTITLE48=First Call
TTITLE49=First Call
TTITLE50=First Call
TTITLE51=First Call
TTITLE52=First Call
TTITLE53=First Call
TTITLE54=First Call
TTITLE55=First Call
TTITLE56=First Call
TTITLE57=First Call
TTITLE58=First Call
TTITLE59=First Call
TTITLE60=First Call
TTITLE61=First Call
TTITLE62=First Call
TTITLE63=First Call
TTITLE64=First Call
TTITLE65=First Call
TTITLE66=First Call
TTITLE67=First Call
TTITLE68=First Call
TTITLE69=First Call
EXTD=YEAR: 2000
EXTT0=
EXTT1=
EXTT2=
EXTT3=
EXTT4=
EXTT5=
EXTT6=
EXTT7=
EXTT8=
EXTT9=
EXTT10=
EXTT11=
EXTT12=
EXTT13=
EXTT14=
EXTT15=
EXTT16=
EXTT17=
EXTT18=
EXTT19=
EXTT20=
EXTT21=
EXTT22=
EXTT23=
EXTT24=
EXTT25=
EXTT26=
EXTT27=
EXTT28=
EXTT29=
EXTT30=
EXTT31=
EXTT32=
EXTT33=
EXTT34=
EXTT35=
EXTT36=
EXTT37=
EXTT38=
EXTT39=
EXTT40=
EXTT41=
EXTT42=
EXTT43=
EXTT44=
EXTT45=
EXTT46=
EXTT47=
EXTT48=
EXTT49=
EXTT50=
EXTT51=
EXTT52=
EXTT53=
EXTT54=
EXTT55=
EXTT56=
EXTT57=
EXTT58=
EXTT59=
EXTT60=
EXTT61=
EXTT62=
EXTT63=
EXTT64=
EXTT65=
EXTT66=
EXTT67=
EXTT68=
EXTT69=
PLAYORDER=
